# xmcd CD database file
#
# Track frame offsets:
#	150
#	12845
#	32042
#	53745
#
# Disc length: 1110 seconds
#
# Revision: 0
# Processed by: cddbd v1.5PL3 Copyright (c) Steve Scherf et al.
# Submitted via: CDex 1.50
#
DISCID=26045404
DTITLE=Naoko Terai - RHAPSODY IN BLUE
DYEAR=1900
DGENRE=Jazz
TTITLE0=RHAPSODY IN BLUE
TTITLE1=THINKING OF YOU
TTITLE2=出会い
TTITLE3=PURE MOMENT
EXTD=
EXTT0=
EXTT1=
EXTT2=
EXTT3=
PLAYORDER=
